<svg width="622" height="780" viewBox="0 0 622 780" fill="none" xmlns="http://www.w3.org/2000/svg">
	<g clip-path="url(#clip0_14524_121584)">
		<path d="M346.874 237.323C346.124 238.084 345.434 238.904 344.811 239.774L249.457 236.379L238.55 215.766L205.531 228.288L221.319 266.679C222.594 269.78 224.834 272.381 227.7 274.09C230.567 275.799 233.906 276.525 237.217 276.159L345.121 264.219C347.629 267.492 351.065 269.918 354.974 271.174C358.883 272.43 363.079 272.457 367.003 271.251C370.928 270.046 374.395 267.664 376.944 264.424C379.492 261.183 381.001 257.237 381.27 253.111C381.539 248.985 380.555 244.875 378.449 241.326C376.343 237.777 373.215 234.959 369.481 233.246C365.747 231.533 361.584 231.007 357.545 231.737C353.507 232.467 349.785 234.419 346.874 237.333V237.323Z" fill="#F0CECE" />
		<path d="M164.517 138.124C195.135 138.124 219.956 113.065 219.956 82.1519C219.956 51.2393 195.135 26.1797 164.517 26.1797C133.899 26.1797 109.078 51.2393 109.078 82.1519C109.078 113.065 133.899 138.124 164.517 138.124Z" fill="#2F2E41" />
		<path d="M120.577 51.7756C129.574 42.7597 131.398 29.9693 124.65 23.2074C117.902 16.4455 105.137 18.2727 96.1393 27.2886C87.1417 36.3045 85.3182 49.0949 92.0664 55.8568C98.8146 62.6187 111.579 60.7915 120.577 51.7756Z" fill="#2F2E41" />
		<path d="M222.07 34.0587C225.819 25.2646 219.372 14.0754 207.67 9.06669C195.968 4.05802 183.443 7.1266 179.694 15.9207C175.945 24.7147 182.392 35.9041 194.094 40.9128C205.796 45.9214 218.321 42.8528 222.07 34.0587Z" fill="#2F2E41" />
		<path d="M245.118 232.707L202.373 251.963C201.157 252.511 199.838 252.789 198.506 252.777C197.174 252.764 195.86 252.463 194.653 251.894C193.447 251.324 192.377 250.499 191.516 249.475C190.654 248.451 190.022 247.252 189.663 245.96L177.057 200.677C174.317 194.393 174.161 187.272 176.622 180.872C179.083 174.473 183.962 169.317 190.189 166.533C196.416 163.75 203.484 163.567 209.845 166.023C216.207 168.479 221.342 173.375 224.127 179.639L249.151 219.16C249.867 220.292 250.333 221.566 250.516 222.895C250.7 224.225 250.596 225.578 250.214 226.864C249.831 228.15 249.178 229.337 248.298 230.345C247.419 231.354 246.334 232.159 245.118 232.707Z" fill="#CCCCCC" />
		<path d="M47.9875 421.028C50.9119 420.344 53.6518 419.022 56.0143 417.156C58.3768 415.289 60.3043 412.924 61.6612 410.226C63.018 407.528 63.7711 404.564 63.8675 401.541C63.9638 398.518 63.4011 395.511 62.2189 392.731L137.925 220.433L94.617 209.445L33.8186 382.263C29.3142 384.573 25.8074 388.468 23.9629 393.209C22.1184 397.949 22.0642 403.207 23.8107 407.985C25.5572 412.763 28.983 416.73 33.4389 419.134C37.8948 421.538 43.0713 422.212 47.9875 421.028Z" fill="#F0CECE" />
		<path d="M27.043 733.084L48.9509 741.182L90.1444 659.244L57.8092 647.293L27.043 733.084Z" fill="#F0CECE" />
		<path d="M84.3594 777.84L14.7008 752.426L24.5 725.458L67.2451 741.053C74.383 743.657 80.1961 748.996 83.4057 755.894C86.6153 762.793 86.9583 770.687 84.3594 777.84Z" fill="black" />
		<path d="M79.0087 687.013C77.6439 687.013 76.296 686.711 75.0624 686.128L49.5 674.034C47.4044 673.052 45.7529 671.321 44.8708 669.183C43.9887 667.045 43.9399 664.655 44.7339 662.483L116.876 462.939C117.473 461.286 118.528 459.837 119.917 458.759C121.306 457.681 122.973 457.018 124.723 456.848C126.474 456.678 128.237 457.008 129.808 457.799C131.379 458.589 132.693 459.809 133.598 461.316L171.755 524.837C172.604 526.252 173.061 527.868 173.079 529.517C173.096 531.167 172.674 532.792 171.856 534.225L87.1183 682.342C86.2972 683.764 85.115 684.945 83.6912 685.765C82.2674 686.585 80.6523 687.015 79.0087 687.013Z" fill="#2F2E41" />
		<path d="M165.416 142.639C191.553 142.639 212.742 121.419 212.742 95.2435C212.742 69.0675 191.553 47.8477 165.416 47.8477C139.278 47.8477 118.09 69.0675 118.09 95.2435C118.09 121.419 139.278 142.639 165.416 142.639Z" fill="#F0CECE" />
		<path d="M232.609 310.554L149.185 287.412L104.815 197.901C102.684 193.6 101.677 188.822 101.892 184.019C102.106 179.216 103.534 174.548 106.039 170.458C108.545 166.369 112.046 162.993 116.209 160.652C120.372 158.311 125.059 157.082 129.825 157.082H196.198C203.087 157.078 209.735 159.642 214.864 164.283C232.668 180.372 270.074 226.755 232.97 309.745L232.609 310.554Z" fill="#CCCCCC" />
		<path d="M128.17 251.003L85.5889 231.215C84.3774 230.652 83.3023 229.836 82.4369 228.824C81.5715 227.811 80.9362 226.625 80.5741 225.347C80.212 224.068 80.1317 222.727 80.3387 221.415C80.5456 220.103 81.0351 218.851 81.7735 217.743L107.651 178.945C110.591 172.811 115.859 168.084 122.302 165.8C128.745 163.515 135.838 163.86 142.026 166.757C148.214 169.655 152.992 174.869 155.315 181.258C157.637 187.647 157.314 194.689 154.416 200.842L141.035 245.282C140.651 246.554 139.996 247.73 139.114 248.728C138.231 249.726 137.143 250.524 135.922 251.067C134.701 251.61 133.377 251.885 132.039 251.874C130.701 251.863 129.382 251.566 128.17 251.003Z" fill="#CCCCCC" />
		<path d="M178.488 755.625H202.308L213.641 665.348L178.484 665.35L178.488 755.625Z" fill="#F0CECE" />
		<path d="M248.281 777.836L174.149 777.839L174.148 749.139L219.638 749.137C227.234 749.137 234.52 752.16 239.891 757.542C245.263 762.924 248.281 770.224 248.281 777.836Z" fill="black" />
		<path d="M187.875 720.416C185.761 720.419 183.711 719.691 182.07 718.353C180.429 717.016 179.298 715.151 178.867 713.074C172.109 681.111 137.013 517.395 109.621 433.065C81.7501 347.267 129.215 308.187 139.013 301.225C140.056 300.485 140.885 299.48 141.415 298.313L148.534 282.593C149.272 280.971 150.459 279.595 151.954 278.63C153.449 277.665 155.188 277.153 156.965 277.152H157.023C210.387 277.472 228.326 294.359 233.562 301.605C234.334 302.684 234.864 303.919 235.113 305.225C235.363 306.53 235.327 307.874 235.007 309.163L201.243 449.004C201.034 449.871 200.986 450.77 201.103 451.654L234.696 705.562C234.857 706.782 234.775 708.023 234.454 709.211C234.133 710.399 233.579 711.511 232.826 712.482C232.072 713.453 231.133 714.264 230.064 714.867C228.995 715.471 227.817 715.854 226.598 715.995L188.959 720.354C188.599 720.396 188.237 720.416 187.875 720.416Z" fill="#052D52" />
		<path d="M116.285 65.4774C127.061 72.7869 139.851 76.6771 152.938 76.6256C148.269 79.8113 142.955 81.9632 137.36 82.933C154.76 86.6064 172.744 86.7059 190.185 83.2251C194.061 82.6133 197.802 81.3488 201.243 79.4871C202.957 78.5447 204.451 77.2577 205.627 75.7098C206.803 74.1619 207.635 72.3877 208.068 70.5027C209.227 63.9864 204.068 58.0663 198.707 54.0765C190.498 48.0609 181.034 43.9163 170.998 41.9426C160.962 39.9688 150.606 40.2152 140.679 42.664C134.197 44.3131 127.703 47.0994 123.493 52.2228C119.282 57.3462 118.035 65.2448 122.047 70.5205L116.285 65.4774Z" fill="#2F2E41" />
		<path d="M507.404 299.846H383.526C379.921 299.842 376.465 298.405 373.916 295.851C371.368 293.296 369.934 289.833 369.93 286.221V151.481C369.934 147.868 371.368 144.405 373.916 141.851C376.465 139.296 379.921 137.86 383.526 137.855H507.404C511.008 137.86 514.464 139.296 517.013 141.851C519.562 144.405 520.996 147.868 521 151.481V286.221C520.996 289.833 519.562 293.296 517.013 295.851C514.464 298.405 511.008 299.842 507.404 299.846ZM383.526 140.883C380.722 140.886 378.034 142.004 376.052 143.991C374.069 145.977 372.954 148.671 372.951 151.481V286.221C372.954 289.03 374.069 291.724 376.052 293.711C378.034 295.697 380.722 296.815 383.526 296.818H507.404C510.207 296.815 512.895 295.697 514.878 293.711C516.86 291.724 517.975 289.03 517.979 286.221V151.481C517.975 148.671 516.86 145.977 514.878 143.991C512.895 142.004 510.207 140.886 507.404 140.883H383.526Z" fill="#3F3D56" />
		<path d="M408.279 193.637H396.43C394.663 193.635 392.969 192.932 391.72 191.68C390.47 190.429 389.768 188.732 389.766 186.963V175.097C389.768 173.327 390.47 171.63 391.72 170.379C392.969 169.128 394.663 168.424 396.43 168.422H408.279C410.046 168.424 411.74 169.128 412.99 170.379C414.239 171.63 414.942 173.327 414.944 175.097V186.963C414.942 188.732 414.239 190.429 412.99 191.68C411.74 192.932 410.046 193.635 408.279 193.637Z" fill="#052D52" />
		<path d="M408.279 231.839H396.43C394.663 231.837 392.969 231.112 391.72 229.823C390.47 228.533 389.768 226.785 389.766 224.962V212.736C389.768 210.913 390.47 209.165 391.72 207.876C392.969 206.587 394.663 205.861 396.43 205.859H408.279C410.046 205.861 411.74 206.587 412.99 207.876C414.239 209.165 414.942 210.913 414.944 212.736V224.962C414.942 226.785 414.239 228.533 412.99 229.823C411.74 231.112 410.046 231.837 408.279 231.839Z" fill="#CCCCCC" />
		<path d="M496.622 186.758H440.088C438.884 186.757 437.73 186.259 436.878 185.372C436.027 184.486 435.548 183.285 435.547 182.031V180.024C435.548 178.771 436.027 177.569 436.878 176.683C437.73 175.797 438.884 175.298 440.088 175.297H496.622C497.826 175.298 498.98 175.797 499.832 176.683C500.683 177.569 501.162 178.771 501.163 180.024V182.031C501.162 183.285 500.683 184.486 499.832 185.372C498.98 186.259 497.826 186.757 496.622 186.758Z" fill="#052D52" />
		<path d="M496.622 224.197H440.088C438.884 224.196 437.73 223.731 436.878 222.904C436.027 222.077 435.548 220.955 435.547 219.785V217.912C435.548 216.742 436.027 215.621 436.878 214.794C437.73 213.967 438.884 213.501 440.088 213.5H496.622C497.826 213.501 498.98 213.967 499.832 214.794C500.683 215.621 501.162 216.742 501.163 217.912V219.785C501.162 220.955 500.683 222.077 499.832 222.904C498.98 223.731 497.826 224.196 496.622 224.197Z" fill="#CCCCCC" />
		<path d="M408.279 269.284H396.43C394.663 269.282 392.969 268.557 391.72 267.268C390.47 265.979 389.768 264.231 389.766 262.407V250.182C389.768 248.358 390.47 246.61 391.72 245.321C392.969 244.032 394.663 243.307 396.43 243.305H408.279C410.046 243.307 411.74 244.032 412.99 245.321C414.239 246.61 414.942 248.358 414.944 250.182V262.407C414.942 264.231 414.239 265.979 412.99 267.268C411.74 268.557 410.046 269.282 408.279 269.284Z" fill="#CCCCCC" />
		<path d="M496.622 261.643H440.088C438.884 261.642 437.73 261.176 436.878 260.349C436.027 259.522 435.548 258.401 435.547 257.231V255.357C435.548 254.188 436.027 253.066 436.878 252.239C437.73 251.412 438.884 250.947 440.088 250.945H496.622C497.826 250.947 498.98 251.412 499.832 252.239C500.683 253.066 501.162 254.188 501.163 255.357V257.231C501.162 258.401 500.683 259.522 499.832 260.349C498.98 261.176 497.826 261.642 496.622 261.643Z" fill="#CCCCCC" />
		<path opacity="0.7" d="M622.001 558V779.096L564.831 777.438H272.348V597.067L357.691 558H622.001Z" fill="#C70707" />
		<path d="M622.001 558V558.695L601.476 572.607L564.831 597.439H272.348L357.691 558H622.001Z" fill="#C70707" />
		<path opacity="0.9" d="M622 558V779.096L564.719 777.438L565.133 596.649L601.435 572.469L621.668 558H622Z" fill="#C70707" />
		<path d="M545.762 581.901H366.625L379.956 573.535H551.595L545.762 581.901Z" fill="white" />
		<path d="M716.673 780.904H-128.027C-128.499 780.904 -128.952 780.714 -129.287 780.375C-129.621 780.037 -129.809 779.577 -129.809 779.099C-129.809 778.62 -129.621 778.16 -129.287 777.822C-128.952 777.483 -128.499 777.293 -128.027 777.293H716.673C717.146 777.293 717.599 777.483 717.933 777.822C718.267 778.16 718.455 778.62 718.455 779.099C718.455 779.577 718.267 780.037 717.933 780.375C717.599 780.714 717.146 780.904 716.673 780.904Z" fill="#E6E6E6" />
	</g>
	<defs>
		<clipPath id="clip0_14524_121584">
			<rect width="622" height="780" fill="white" />
		</clipPath>
	</defs>
</svg>
